<mxfile host="app.diagrams.net" modified="2023-07-02T03:13:23.606Z" agent="Mozilla/5.0 (Macintosh; Intel Mac OS X 10_15_7) AppleWebKit/537.36 (KHTML, like Gecko) Chrome/114.0.0.0 Safari/537.36" etag="KzngUuMBf4YoSzS5zFAA" version="21.5.0" type="device">
  <diagram id="wvQ66U3HLiB5DhwhfSA0" name="Page-1">
    <mxGraphModel dx="855" dy="516" grid="1" gridSize="10" guides="1" tooltips="1" connect="1" arrows="1" fold="1" page="1" pageScale="1" pageWidth="827" pageHeight="1169" math="0" shadow="0">
      <root>
        <mxCell id="0" />
        <mxCell id="1" parent="0" />
        <mxCell id="chVdNgfqkgnrrydwJ58G-1" value="基础知识点遗漏" style="rounded=0;whiteSpace=wrap;html=1;" vertex="1" parent="1">
          <mxGeometry x="100" y="60" width="100" height="40" as="geometry" />
        </mxCell>
        <mxCell id="chVdNgfqkgnrrydwJ58G-2" value="实际操作" style="rounded=0;whiteSpace=wrap;html=1;" vertex="1" parent="1">
          <mxGeometry x="100" y="120" width="100" height="40" as="geometry" />
        </mxCell>
        <mxCell id="chVdNgfqkgnrrydwJ58G-3" value="项目结合" style="rounded=0;whiteSpace=wrap;html=1;" vertex="1" parent="1">
          <mxGeometry x="100" y="180" width="100" height="40" as="geometry" />
        </mxCell>
        <mxCell id="chVdNgfqkgnrrydwJ58G-4" value="" style="shape=curlyBracket;whiteSpace=wrap;html=1;rounded=1;labelPosition=left;verticalLabelPosition=middle;align=right;verticalAlign=middle;" vertex="1" parent="1">
          <mxGeometry x="60" y="80" width="20" height="120" as="geometry" />
        </mxCell>
        <mxCell id="chVdNgfqkgnrrydwJ58G-5" value="不够吃" style="rounded=0;whiteSpace=wrap;html=1;" vertex="1" parent="1">
          <mxGeometry x="414" y="180" width="100" height="40" as="geometry" />
        </mxCell>
        <mxCell id="chVdNgfqkgnrrydwJ58G-6" value="吃不下" style="rounded=0;whiteSpace=wrap;html=1;" vertex="1" parent="1">
          <mxGeometry x="414" y="60" width="100" height="40" as="geometry" />
        </mxCell>
        <mxCell id="chVdNgfqkgnrrydwJ58G-7" value="正正好" style="rounded=0;whiteSpace=wrap;html=1;" vertex="1" parent="1">
          <mxGeometry x="414" y="120" width="100" height="40" as="geometry" />
        </mxCell>
        <mxCell id="chVdNgfqkgnrrydwJ58G-8" value="课程注意点" style="text;html=1;align=center;verticalAlign=middle;resizable=0;points=[];autosize=1;strokeColor=none;fillColor=none;" vertex="1" parent="1">
          <mxGeometry x="10" y="28" width="80" height="30" as="geometry" />
        </mxCell>
        <mxCell id="chVdNgfqkgnrrydwJ58G-9" value="自我提升" style="text;html=1;align=center;verticalAlign=middle;resizable=0;points=[];autosize=1;strokeColor=none;fillColor=none;" vertex="1" parent="1">
          <mxGeometry x="15" y="290" width="70" height="30" as="geometry" />
        </mxCell>
        <mxCell id="chVdNgfqkgnrrydwJ58G-12" value="" style="edgeStyle=orthogonalEdgeStyle;rounded=0;orthogonalLoop=1;jettySize=auto;html=1;" edge="1" parent="1" source="chVdNgfqkgnrrydwJ58G-10" target="chVdNgfqkgnrrydwJ58G-11">
          <mxGeometry relative="1" as="geometry" />
        </mxCell>
        <mxCell id="chVdNgfqkgnrrydwJ58G-10" value="发现问题" style="whiteSpace=wrap;html=1;" vertex="1" parent="1">
          <mxGeometry x="80" y="350" width="120" height="60" as="geometry" />
        </mxCell>
        <mxCell id="chVdNgfqkgnrrydwJ58G-14" value="" style="edgeStyle=orthogonalEdgeStyle;rounded=0;orthogonalLoop=1;jettySize=auto;html=1;" edge="1" parent="1" source="chVdNgfqkgnrrydwJ58G-11" target="chVdNgfqkgnrrydwJ58G-13">
          <mxGeometry relative="1" as="geometry" />
        </mxCell>
        <mxCell id="chVdNgfqkgnrrydwJ58G-11" value="找到问题" style="whiteSpace=wrap;html=1;" vertex="1" parent="1">
          <mxGeometry x="280" y="350" width="120" height="60" as="geometry" />
        </mxCell>
        <mxCell id="chVdNgfqkgnrrydwJ58G-16" value="" style="edgeStyle=orthogonalEdgeStyle;rounded=0;orthogonalLoop=1;jettySize=auto;html=1;" edge="1" parent="1" source="chVdNgfqkgnrrydwJ58G-13" target="chVdNgfqkgnrrydwJ58G-15">
          <mxGeometry relative="1" as="geometry" />
        </mxCell>
        <mxCell id="chVdNgfqkgnrrydwJ58G-13" value="获取痛点" style="whiteSpace=wrap;html=1;" vertex="1" parent="1">
          <mxGeometry x="480" y="350" width="120" height="60" as="geometry" />
        </mxCell>
        <mxCell id="chVdNgfqkgnrrydwJ58G-15" value="制定方案" style="whiteSpace=wrap;html=1;" vertex="1" parent="1">
          <mxGeometry x="680" y="350" width="120" height="60" as="geometry" />
        </mxCell>
        <mxCell id="chVdNgfqkgnrrydwJ58G-17" value="找寻突破" style="text;html=1;align=center;verticalAlign=middle;resizable=0;points=[];autosize=1;strokeColor=none;fillColor=none;" vertex="1" parent="1">
          <mxGeometry y="365" width="70" height="30" as="geometry" />
        </mxCell>
        <mxCell id="chVdNgfqkgnrrydwJ58G-20" value="" style="edgeStyle=orthogonalEdgeStyle;rounded=0;orthogonalLoop=1;jettySize=auto;html=1;" edge="1" parent="1" source="chVdNgfqkgnrrydwJ58G-18" target="chVdNgfqkgnrrydwJ58G-19">
          <mxGeometry relative="1" as="geometry" />
        </mxCell>
        <mxCell id="chVdNgfqkgnrrydwJ58G-18" value="突破领域" style="text;html=1;align=center;verticalAlign=middle;resizable=0;points=[];autosize=1;strokeColor=none;fillColor=none;" vertex="1" parent="1">
          <mxGeometry y="480" width="70" height="30" as="geometry" />
        </mxCell>
        <mxCell id="chVdNgfqkgnrrydwJ58G-19" value="热门、新领域" style="text;html=1;align=center;verticalAlign=middle;resizable=0;points=[];autosize=1;strokeColor=none;fillColor=none;" vertex="1" parent="1">
          <mxGeometry x="135" y="480" width="100" height="30" as="geometry" />
        </mxCell>
        <mxCell id="chVdNgfqkgnrrydwJ58G-21" value="成长路线" style="text;html=1;align=center;verticalAlign=middle;resizable=0;points=[];autosize=1;strokeColor=none;fillColor=none;" vertex="1" parent="1">
          <mxGeometry x="20" y="585" width="70" height="30" as="geometry" />
        </mxCell>
        <mxCell id="chVdNgfqkgnrrydwJ58G-25" value="" style="edgeStyle=orthogonalEdgeStyle;rounded=0;orthogonalLoop=1;jettySize=auto;html=1;" edge="1" parent="1" source="chVdNgfqkgnrrydwJ58G-22" target="chVdNgfqkgnrrydwJ58G-24">
          <mxGeometry relative="1" as="geometry" />
        </mxCell>
        <mxCell id="chVdNgfqkgnrrydwJ58G-22" value="JS基础知识" style="whiteSpace=wrap;html=1;" vertex="1" parent="1">
          <mxGeometry x="20" y="640" width="100" height="30" as="geometry" />
        </mxCell>
        <mxCell id="chVdNgfqkgnrrydwJ58G-23" value="FE coder" style="text;html=1;align=center;verticalAlign=middle;resizable=0;points=[];autosize=1;strokeColor=none;fillColor=none;" vertex="1" parent="1">
          <mxGeometry x="85" y="585" width="70" height="30" as="geometry" />
        </mxCell>
        <mxCell id="chVdNgfqkgnrrydwJ58G-27" value="" style="edgeStyle=orthogonalEdgeStyle;rounded=0;orthogonalLoop=1;jettySize=auto;html=1;" edge="1" parent="1" source="chVdNgfqkgnrrydwJ58G-24" target="chVdNgfqkgnrrydwJ58G-26">
          <mxGeometry relative="1" as="geometry" />
        </mxCell>
        <mxCell id="chVdNgfqkgnrrydwJ58G-24" value="业务整框架" style="whiteSpace=wrap;html=1;" vertex="1" parent="1">
          <mxGeometry x="200" y="640" width="100" height="30" as="geometry" />
        </mxCell>
        <mxCell id="chVdNgfqkgnrrydwJ58G-26" value="体系建立" style="whiteSpace=wrap;html=1;" vertex="1" parent="1">
          <mxGeometry x="380" y="640" width="100" height="30" as="geometry" />
        </mxCell>
        <mxCell id="chVdNgfqkgnrrydwJ58G-28" value="" style="shape=curlyBracket;whiteSpace=wrap;html=1;rounded=1;labelPosition=left;verticalLabelPosition=middle;align=right;verticalAlign=middle;" vertex="1" parent="1">
          <mxGeometry x="60" y="760" width="20" height="120" as="geometry" />
        </mxCell>
        <mxCell id="chVdNgfqkgnrrydwJ58G-29" value="创建" style="text;html=1;align=center;verticalAlign=middle;resizable=0;points=[];autosize=1;strokeColor=none;fillColor=none;" vertex="1" parent="1">
          <mxGeometry x="100" y="760" width="50" height="30" as="geometry" />
        </mxCell>
        <mxCell id="chVdNgfqkgnrrydwJ58G-30" value="" style="shape=curlyBracket;whiteSpace=wrap;html=1;rounded=1;labelPosition=left;verticalLabelPosition=middle;align=right;verticalAlign=middle;" vertex="1" parent="1">
          <mxGeometry x="150" y="742.5" width="20" height="65" as="geometry" />
        </mxCell>
        <mxCell id="chVdNgfqkgnrrydwJ58G-31" value="作用域链： 当前变量，上级变量" style="text;html=1;align=center;verticalAlign=middle;resizable=0;points=[];autosize=1;strokeColor=none;fillColor=none;" vertex="1" parent="1">
          <mxGeometry x="170" y="742.5" width="190" height="30" as="geometry" />
        </mxCell>
        <mxCell id="chVdNgfqkgnrrydwJ58G-32" value="声明判断：参数、变量、函数" style="text;html=1;align=center;verticalAlign=middle;resizable=0;points=[];autosize=1;strokeColor=none;fillColor=none;" vertex="1" parent="1">
          <mxGeometry x="170" y="777.5" width="180" height="30" as="geometry" />
        </mxCell>
        <mxCell id="chVdNgfqkgnrrydwJ58G-33" value="动态执行" style="text;html=1;align=center;verticalAlign=middle;resizable=0;points=[];autosize=1;strokeColor=none;fillColor=none;" vertex="1" parent="1">
          <mxGeometry x="90" y="840" width="70" height="30" as="geometry" />
        </mxCell>
        <mxCell id="chVdNgfqkgnrrydwJ58G-34" value="" style="shape=curlyBracket;whiteSpace=wrap;html=1;rounded=1;labelPosition=left;verticalLabelPosition=middle;align=right;verticalAlign=middle;" vertex="1" parent="1">
          <mxGeometry x="150" y="822.5" width="20" height="65" as="geometry" />
        </mxCell>
        <mxCell id="chVdNgfqkgnrrydwJ58G-35" value="context: this" style="text;html=1;align=center;verticalAlign=middle;resizable=0;points=[];autosize=1;strokeColor=none;fillColor=none;" vertex="1" parent="1">
          <mxGeometry x="165" y="808" width="90" height="30" as="geometry" />
        </mxCell>
      </root>
    </mxGraphModel>
  </diagram>
</mxfile>
